solid table.stl
  facet normal 1 0 0
    outer loop
    vertex -1.34788 0.325 0.949924
    vertex -1.34788 0.325 0.999924
    vertex -1.34788 -0.375 0.949924
    endloop
  endfacet
  facet normal 0 -1 0
    outer loop
    vertex 1.35212 0.325 0.949924
    vertex -1.34788 0.325 0.999924
    vertex -1.34788 0.325 0.949924
    endloop
  endfacet
  facet normal 0 -0 -1
    outer loop
    vertex -1.39788 -0.375 0.949924
    vertex -1.34788 0.325 0.949924
    vertex -1.34788 -0.375 0.949924
    endloop
  endfacet
  facet normal -0 0 -1
    outer loop
    vertex -1.39788 0.325 0.949924
    vertex -1.34788 0.325 0.949924
    vertex -1.39788 -0.375 0.949924
    endloop
  endfacet
  facet normal -0 -1 -0
    outer loop
    vertex -0.247879 0.325 0.0499238
    vertex -1.34788 0.325 0.949924
    vertex -1.39788 0.325 0.949924
    endloop
  endfacet
  facet normal 0 -1 0
    outer loop
    vertex 1.35212 0.325 0.949924
    vertex -1.34788 0.325 0.949924
    vertex 0.20212 0.325 0.0499238
    endloop
  endfacet
  facet normal 0 -1 0
    outer loop
    vertex 0.20212 0.325 0.0499238
    vertex -1.34788 0.325 0.949924
    vertex -0.19788 0.325 0.0499238
    endloop
  endfacet
  facet normal 0 -1 0
    outer loop
    vertex -0.19788 0.325 0.0499238
    vertex -1.34788 0.325 0.949924
    vertex -0.247879 0.325 0.0499238
    endloop
  endfacet
  facet normal 1 0 0
    outer loop
    vertex -1.34788 -0.375 0.949924
    vertex -1.34788 0.325 0.999924
    vertex -1.34788 -0.375 0.999924
    endloop
  endfacet
  facet normal 0 -0 1
    outer loop
    vertex -1.39788 0.325 0.999924
    vertex -1.34788 -0.375 0.999924
    vertex -1.34788 0.325 0.999924
    endloop
  endfacet
  facet normal 0 -0 1
    outer loop
    vertex -1.5 0.375 0.999924
    vertex -1.39788 0.325 0.999924
    vertex -1.34788 0.325 0.999924
    endloop
  endfacet
  facet normal 0 -1 0
    outer loop
    vertex 1.35212 0.325 0.999924
    vertex -1.34788 0.325 0.999924
    vertex 1.35212 0.325 0.949924
    endloop
  endfacet
  facet normal 0 0 1
    outer loop
    vertex 1.5 0.375 0.999924
    vertex -1.34788 0.325 0.999924
    vertex 1.35212 0.325 0.999924
    endloop
  endfacet
  facet normal 0 -0 1
    outer loop
    vertex -1.5 0.375 0.999924
    vertex -1.34788 0.325 0.999924
    vertex 1.5 0.375 0.999924
    endloop
  endfacet
  facet normal 0 -1 0
    outer loop
    vertex -1.34788 -0.375 0.999924
    vertex -1.39788 -0.375 0.949924
    vertex -1.34788 -0.375 0.949924
    endloop
  endfacet
  facet normal 0 -1 0
    outer loop
    vertex -1.39788 -0.375 0.999924
    vertex -1.39788 -0.375 0.949924
    vertex -1.34788 -0.375 0.999924
    endloop
  endfacet
  facet normal 0 0 1
    outer loop
    vertex -1.39788 -0.375 0.999924
    vertex -1.34788 -0.375 0.999924
    vertex -1.39788 0.325 0.999924
    endloop
  endfacet
  facet normal -1 0 0
    outer loop
    vertex -1.39788 -0.375 0.999924
    vertex -1.39788 0.325 0.949924
    vertex -1.39788 -0.375 0.949924
    endloop
  endfacet
  facet normal -1 0 0
    outer loop
    vertex -1.39788 0.325 0.999924
    vertex -1.39788 0.325 0.949924
    vertex -1.39788 -0.375 0.999924
    endloop
  endfacet
  facet normal 0 -1 0
    outer loop
    vertex -1.5 0.325 0.999924
    vertex -1.39788 0.325 0.949924
    vertex -1.39788 0.325 0.999924
    endloop
  endfacet
  facet normal 0 -1 0
    outer loop
    vertex -0.247879 0.325 0.0499238
    vertex -1.39788 0.325 0.949924
    vertex -0.247879 0.325 -7.61449e-005
    endloop
  endfacet
  facet normal -0 -1 -0
    outer loop
    vertex -0.247879 0.325 -7.61449e-005
    vertex -1.39788 0.325 0.949924
    vertex -1.5 0.325 0.999924
    endloop
  endfacet
  facet normal 0 0 1
    outer loop
    vertex -1.5 0.325 0.999924
    vertex -1.39788 0.325 0.999924
    vertex -1.5 0.375 0.999924
    endloop
  endfacet
  facet normal -1 0 0
    outer loop
    vertex 1.35212 0.325 0.999924
    vertex 1.35212 0.325 0.949924
    vertex 1.35212 -0.375 0.999924
    endloop
  endfacet
  facet normal -0 0 1
    outer loop
    vertex 1.40212 0.325 0.999924
    vertex 1.35212 0.325 0.999924
    vertex 1.40212 -0.375 0.999924
    endloop
  endfacet
  facet normal 0 0 1
    outer loop
    vertex 1.5 0.375 0.999924
    vertex 1.35212 0.325 0.999924
    vertex 1.40212 0.325 0.999924
    endloop
  endfacet
  facet normal 0 0 1
    outer loop
    vertex 1.40212 -0.375 0.999924
    vertex 1.35212 0.325 0.999924
    vertex 1.35212 -0.375 0.999924
    endloop
  endfacet
  facet normal 0 -1 0
    outer loop
    vertex 0.20212 0.325 0.0499238
    vertex 0.25212 0.325 0.0499238
    vertex 1.35212 0.325 0.949924
    endloop
  endfacet
  facet normal 0 -1 0
    outer loop
    vertex 1.35212 0.325 0.949924
    vertex 0.25212 0.325 0.0499238
    vertex 1.40212 0.325 0.949924
    endloop
  endfacet
  facet normal -0 0 -1
    outer loop
    vertex 1.35212 0.325 0.949924
    vertex 1.40212 0.325 0.949924
    vertex 1.35212 -0.375 0.949924
    endloop
  endfacet
  facet normal -1 0 0
    outer loop
    vertex 1.35212 -0.375 0.999924
    vertex 1.35212 0.325 0.949924
    vertex 1.35212 -0.375 0.949924
    endloop
  endfacet
  facet normal 0 -1 0
    outer loop
    vertex 0.20212 0.325 0.0499238
    vertex -0.19788 0.325 0.0499238
    vertex 0.20212 0.325 -7.61449e-005
    endloop
  endfacet
  facet normal -1 0 0
    outer loop
    vertex 0.20212 0.325 0.0499238
    vertex 0.20212 0.325 -7.61449e-005
    vertex 0.20212 -0.375 0.0499238
    endloop
  endfacet
  facet normal -0 0 1
    outer loop
    vertex 0.25212 0.325 0.0499238
    vertex 0.20212 0.325 0.0499238
    vertex 0.25212 -0.375 0.0499238
    endloop
  endfacet
  facet normal 0 0 1
    outer loop
    vertex 0.25212 -0.375 0.0499238
    vertex 0.20212 0.325 0.0499238
    vertex 0.20212 -0.375 0.0499238
    endloop
  endfacet
  facet normal 0 -1 0
    outer loop
    vertex 0.20212 0.325 -7.61449e-005
    vertex -0.19788 0.325 0.0499238
    vertex -0.19788 0.325 -7.61449e-005
    endloop
  endfacet
  facet normal 1 0 0
    outer loop
    vertex -0.19788 0.325 -7.61449e-005
    vertex -0.19788 0.325 0.0499238
    vertex -0.19788 -0.375 -7.61449e-005
    endloop
  endfacet
  facet normal -0 0 1
    outer loop
    vertex -0.19788 0.325 0.0499238
    vertex -0.247879 0.325 0.0499238
    vertex -0.19788 -0.375 0.0499238
    endloop
  endfacet
  facet normal 1 0 0
    outer loop
    vertex -0.19788 -0.375 -7.61449e-005
    vertex -0.19788 0.325 0.0499238
    vertex -0.19788 -0.375 0.0499238
    endloop
  endfacet
  facet normal 0 0 -1
    outer loop
    vertex -0.19788 0.325 -7.61449e-005
    vertex 0.25212 0.375 -7.61449e-005
    vertex 0.20212 0.325 -7.61449e-005
    endloop
  endfacet
  facet normal -0 0 -1
    outer loop
    vertex 0.20212 0.325 -7.61449e-005
    vertex 0.25212 0.325 -7.61449e-005
    vertex 0.20212 -0.375 -7.61449e-005
    endloop
  endfacet
  facet normal 0 -0 -1
    outer loop
    vertex 0.20212 0.325 -7.61449e-005
    vertex 0.25212 0.375 -7.61449e-005
    vertex 0.25212 0.325 -7.61449e-005
    endloop
  endfacet
  facet normal -1 0 0
    outer loop
    vertex 0.20212 -0.375 0.0499238
    vertex 0.20212 0.325 -7.61449e-005
    vertex 0.20212 -0.375 -7.61449e-005
    endloop
  endfacet
  facet normal 0 0 -1
    outer loop
    vertex -0.19788 0.325 -7.61449e-005
    vertex -0.247879 -0.375 -7.61449e-005
    vertex -0.247879 0.325 -7.61449e-005
    endloop
  endfacet
  facet normal 0 0 -1
    outer loop
    vertex -0.19788 0.325 -7.61449e-005
    vertex -0.247879 0.325 -7.61449e-005
    vertex -0.247879 0.375 -7.61449e-005
    endloop
  endfacet
  facet normal 0 0 -1
    outer loop
    vertex -0.19788 -0.375 -7.61449e-005
    vertex -0.247879 -0.375 -7.61449e-005
    vertex -0.19788 0.325 -7.61449e-005
    endloop
  endfacet
  facet normal -0 0 -1
    outer loop
    vertex -0.247879 0.375 -7.61449e-005
    vertex 0.25212 0.375 -7.61449e-005
    vertex -0.19788 0.325 -7.61449e-005
    endloop
  endfacet
  facet normal -1 0 0
    outer loop
    vertex -0.247879 0.325 0.0499238
    vertex -0.247879 0.325 -7.61449e-005
    vertex -0.247879 -0.375 0.0499238
    endloop
  endfacet
  facet normal 0 0 1
    outer loop
    vertex -0.19788 -0.375 0.0499238
    vertex -0.247879 0.325 0.0499238
    vertex -0.247879 -0.375 0.0499238
    endloop
  endfacet
  facet normal -0.624049 0 -0.781385
    outer loop
    vertex -0.247879 0.325 -7.61449e-005
    vertex -1.5 0.325 0.999924
    vertex -0.247879 0.375 -7.61449e-005
    endloop
  endfacet
  facet normal -1 0 0
    outer loop
    vertex -0.247879 -0.375 0.0499238
    vertex -0.247879 0.325 -7.61449e-005
    vertex -0.247879 -0.375 -7.61449e-005
    endloop
  endfacet
  facet normal -0.624049 0 -0.781385
    outer loop
    vertex -0.247879 0.375 -7.61449e-005
    vertex -1.5 0.325 0.999924
    vertex -1.5 0.375 0.999924
    endloop
  endfacet
  facet normal 0 -1 0
    outer loop
    vertex 1.40212 0.325 0.949924
    vertex 0.25212 0.325 0.0499238
    vertex 0.25212 0.325 -7.61449e-005
    endloop
  endfacet
  facet normal 1 0 0
    outer loop
    vertex 0.25212 0.325 -7.61449e-005
    vertex 0.25212 0.325 0.0499238
    vertex 0.25212 -0.375 -7.61449e-005
    endloop
  endfacet
  facet normal 1 0 0
    outer loop
    vertex 0.25212 -0.375 -7.61449e-005
    vertex 0.25212 0.325 0.0499238
    vertex 0.25212 -0.375 0.0499238
    endloop
  endfacet
  facet normal 0 -1 0
    outer loop
    vertex 1.40212 0.325 0.949924
    vertex 0.25212 0.325 -7.61449e-005
    vertex 1.5 0.325 0.999924
    endloop
  endfacet
  facet normal 0 -1 0
    outer loop
    vertex 1.5 0.325 0.999924
    vertex 1.40212 0.325 0.999924
    vertex 1.40212 0.325 0.949924
    endloop
  endfacet
  facet normal 1 0 0
    outer loop
    vertex 1.40212 0.325 0.949924
    vertex 1.40212 0.325 0.999924
    vertex 1.40212 -0.375 0.949924
    endloop
  endfacet
  facet normal 0 -0 -1
    outer loop
    vertex 1.35212 -0.375 0.949924
    vertex 1.40212 0.325 0.949924
    vertex 1.40212 -0.375 0.949924
    endloop
  endfacet
  facet normal 0.625342 0 -0.780351
    outer loop
    vertex 1.5 0.325 0.999924
    vertex 0.25212 0.325 -7.61449e-005
    vertex 1.5 0.375 0.999924
    endloop
  endfacet
  facet normal 0 -0 -1
    outer loop
    vertex 0.20212 -0.375 -7.61449e-005
    vertex 0.25212 0.325 -7.61449e-005
    vertex 0.25212 -0.375 -7.61449e-005
    endloop
  endfacet
  facet normal 0.625342 0 -0.780351
    outer loop
    vertex 1.5 0.375 0.999924
    vertex 0.25212 0.325 -7.61449e-005
    vertex 0.25212 0.375 -7.61449e-005
    endloop
  endfacet
  facet normal 0 -0 1
    outer loop
    vertex 1.40212 0.325 0.999924
    vertex 1.5 0.325 0.999924
    vertex 1.5 0.375 0.999924
    endloop
  endfacet
  facet normal 1 0 0
    outer loop
    vertex 1.40212 -0.375 0.949924
    vertex 1.40212 0.325 0.999924
    vertex 1.40212 -0.375 0.999924
    endloop
  endfacet
  facet normal 0 -1 0
    outer loop
    vertex -0.19788 -0.375 0.0499238
    vertex -0.247879 -0.375 -7.61449e-005
    vertex -0.19788 -0.375 -7.61449e-005
    endloop
  endfacet
  facet normal 0 -1 0
    outer loop
    vertex -0.247879 -0.375 0.0499238
    vertex -0.247879 -0.375 -7.61449e-005
    vertex -0.19788 -0.375 0.0499238
    endloop
  endfacet
  facet normal -0 -1 0
    outer loop
    vertex 1.35212 -0.375 0.949924
    vertex 1.40212 -0.375 0.999924
    vertex 1.35212 -0.375 0.999924
    endloop
  endfacet
  facet normal 0 -1 -0
    outer loop
    vertex 1.40212 -0.375 0.949924
    vertex 1.40212 -0.375 0.999924
    vertex 1.35212 -0.375 0.949924
    endloop
  endfacet
  facet normal -0 -1 0
    outer loop
    vertex 0.20212 -0.375 -7.61449e-005
    vertex 0.25212 -0.375 0.0499238
    vertex 0.20212 -0.375 0.0499238
    endloop
  endfacet
  facet normal 0 -1 -0
    outer loop
    vertex 0.25212 -0.375 -7.61449e-005
    vertex 0.25212 -0.375 0.0499238
    vertex 0.20212 -0.375 -7.61449e-005
    endloop
  endfacet
  facet normal 0 1 0
    outer loop
    vertex -1.5 0.375 0.999924
    vertex 1.5 0.375 0.999924
    vertex -0.247879 0.375 -7.61449e-005
    endloop
  endfacet
  facet normal 0 1 0
    outer loop
    vertex -0.247879 0.375 -7.61449e-005
    vertex 1.5 0.375 0.999924
    vertex 0.25212 0.375 -7.61449e-005
    endloop
  endfacet
endsolid table.stl
