solid neumatic_rail
   facet normal -1.000000e+00 0.000000e+00 0.000000e+00
      outer loop
         vertex 0.000000e+00 0.000000e+00 5.000000e-01
         vertex 0.000000e+00 1.150000e-01 5.000000e-01
         vertex 0.000000e+00 0.000000e+00 0.000000e+00
      endloop
   endfacet
   facet normal -1.000000e+00 0.000000e+00 -0.000000e+00
      outer loop
         vertex 0.000000e+00 1.150000e-01 5.000000e-01
         vertex 0.000000e+00 1.150000e-01 0.000000e+00
         vertex 0.000000e+00 0.000000e+00 0.000000e+00
      endloop
   endfacet
   facet normal 0.000000e+00 -1.000000e+00 0.000000e+00
      outer loop
         vertex 8.500000e-02 0.000000e+00 0.000000e+00
         vertex 0.000000e+00 0.000000e+00 5.000000e-01
         vertex 0.000000e+00 0.000000e+00 0.000000e+00
      endloop
   endfacet
   facet normal 0.000000e+00 -0.000000e+00 -1.000000e+00
      outer loop
         vertex 8.500000e-02 1.150000e-01 0.000000e+00
         vertex 8.500000e-02 0.000000e+00 0.000000e+00
         vertex 0.000000e+00 0.000000e+00 0.000000e+00
      endloop
   endfacet
   facet normal 0.000000e+00 0.000000e+00 -1.000000e+00
      outer loop
         vertex 0.000000e+00 1.150000e-01 0.000000e+00
         vertex 8.500000e-02 1.150000e-01 0.000000e+00
         vertex 0.000000e+00 0.000000e+00 0.000000e+00
      endloop
   endfacet
   facet normal -0.000000e+00 -1.000000e+00 -0.000000e+00
      outer loop
         vertex 8.500000e-02 0.000000e+00 5.000000e-01
         vertex 0.000000e+00 0.000000e+00 5.000000e-01
         vertex 8.500000e-02 0.000000e+00 0.000000e+00
      endloop
   endfacet
   facet normal 1.000000e+00 0.000000e+00 0.000000e+00
      outer loop
         vertex 8.500000e-02 1.150000e-01 0.000000e+00
         vertex 8.500000e-02 0.000000e+00 5.000000e-01
         vertex 8.500000e-02 0.000000e+00 0.000000e+00
      endloop
   endfacet
   facet normal 0.000000e+00 0.000000e+00 1.000000e+00
      outer loop
         vertex 8.500000e-02 0.000000e+00 5.000000e-01
         vertex 0.000000e+00 1.150000e-01 5.000000e-01
         vertex 0.000000e+00 0.000000e+00 5.000000e-01
      endloop
   endfacet
   facet normal 1.000000e+00 0.000000e+00 -0.000000e+00
      outer loop
         vertex 8.500000e-02 1.150000e-01 0.000000e+00
         vertex 8.500000e-02 1.150000e-01 5.000000e-01
         vertex 8.500000e-02 0.000000e+00 5.000000e-01
      endloop
   endfacet
   facet normal 0.000000e+00 0.000000e+00 1.000000e+00
      outer loop
         vertex 8.500000e-02 1.150000e-01 5.000000e-01
         vertex 0.000000e+00 1.150000e-01 5.000000e-01
         vertex 8.500000e-02 0.000000e+00 5.000000e-01
      endloop
   endfacet
   facet normal -0.000000e+00 1.000000e+00 0.000000e+00
      outer loop
         vertex 0.000000e+00 1.150000e-01 5.000000e-01
         vertex 8.500000e-02 1.150000e-01 5.000000e-01
         vertex 0.000000e+00 1.150000e-01 0.000000e+00
      endloop
   endfacet
   facet normal 0.000000e+00 1.000000e+00 0.000000e+00
      outer loop
         vertex 8.500000e-02 1.150000e-01 5.000000e-01
         vertex 8.500000e-02 1.150000e-01 0.000000e+00
         vertex 0.000000e+00 1.150000e-01 0.000000e+00
      endloop
   endfacet
endsolid