solid table_workspace
   facet normal 0.000000e+00 0.000000e+00 -1.000000e+00
      outer loop
         vertex 0.000000e+00 1.150000e+00 0.000000e+00
         vertex 1.200000e+00 1.150000e+00 0.000000e+00
         vertex 0.000000e+00 0.000000e+00 0.000000e+00
      endloop
   endfacet
   facet normal 0.000000e+00 -0.000000e+00 -1.000000e+00
      outer loop
         vertex 1.200000e+00 1.150000e+00 0.000000e+00
         vertex 1.200000e+00 0.000000e+00 0.000000e+00
         vertex 0.000000e+00 0.000000e+00 0.000000e+00
      endloop
   endfacet
   facet normal -1.000000e+00 0.000000e+00 0.000000e+00
      outer loop
         vertex 0.000000e+00 0.000000e+00 2.420000e+00
         vertex 0.000000e+00 1.150000e+00 0.000000e+00
         vertex 0.000000e+00 0.000000e+00 0.000000e+00
      endloop
   endfacet
   facet normal 0.000000e+00 -1.000000e+00 0.000000e+00
      outer loop
         vertex 1.200000e+00 0.000000e+00 0.000000e+00
         vertex 0.000000e+00 0.000000e+00 2.420000e+00
         vertex 0.000000e+00 0.000000e+00 0.000000e+00
      endloop
   endfacet
   facet normal 1.000000e+00 0.000000e+00 -0.000000e+00
      outer loop
         vertex 1.200000e+00 1.150000e+00 0.000000e+00
         vertex 1.200000e+00 1.150000e+00 2.420000e+00
         vertex 1.200000e+00 0.000000e+00 0.000000e+00
      endloop
   endfacet
   facet normal 1.000000e+00 0.000000e+00 0.000000e+00
      outer loop
         vertex 1.200000e+00 1.150000e+00 2.420000e+00
         vertex 1.200000e+00 0.000000e+00 2.420000e+00
         vertex 1.200000e+00 0.000000e+00 0.000000e+00
      endloop
   endfacet
   facet normal -0.000000e+00 -1.000000e+00 -0.000000e+00
      outer loop
         vertex 1.200000e+00 0.000000e+00 2.420000e+00
         vertex 0.000000e+00 0.000000e+00 2.420000e+00
         vertex 1.200000e+00 0.000000e+00 0.000000e+00
      endloop
   endfacet
   facet normal -1.000000e+00 -0.000000e+00 -0.000000e+00
      outer loop
         vertex 0.000000e+00 1.150000e+00 2.420000e+00
         vertex 0.000000e+00 1.150000e+00 0.000000e+00
         vertex 0.000000e+00 0.000000e+00 2.420000e+00
      endloop
   endfacet
   facet normal 0.000000e+00 0.000000e+00 1.000000e+00
      outer loop
         vertex 1.200000e+00 0.000000e+00 2.420000e+00
         vertex 0.000000e+00 1.150000e+00 2.420000e+00
         vertex 0.000000e+00 0.000000e+00 2.420000e+00
      endloop
   endfacet
   facet normal 0.000000e+00 0.000000e+00 1.000000e+00
      outer loop
         vertex 1.200000e+00 1.150000e+00 2.420000e+00
         vertex 0.000000e+00 1.150000e+00 2.420000e+00
         vertex 1.200000e+00 0.000000e+00 2.420000e+00
      endloop
   endfacet
   facet normal -0.000000e+00 1.000000e+00 0.000000e+00
      outer loop
         vertex 0.000000e+00 1.150000e+00 2.420000e+00
         vertex 1.200000e+00 1.150000e+00 2.420000e+00
         vertex 0.000000e+00 1.150000e+00 0.000000e+00
      endloop
   endfacet
   facet normal 0.000000e+00 1.000000e+00 0.000000e+00
      outer loop
         vertex 1.200000e+00 1.150000e+00 2.420000e+00
         vertex 1.200000e+00 1.150000e+00 0.000000e+00
         vertex 0.000000e+00 1.150000e+00 0.000000e+00
      endloop
   endfacet
endsolid