solid Drum
   facet normal -2.061415e-01 -9.785222e-01 -0.000000e+00
      outer loop
         vertex -5.558212e-02 -1.098595e+00 1.000000e+00
         vertex -3.923462e-01 -1.027650e+00 1.000000e+00
         vertex -5.558212e-02 -1.098595e+00 0.000000e+00
      endloop
   endfacet
   facet normal -2.061415e-01 -9.785222e-01 -0.000000e+00
      outer loop
         vertex -3.923462e-01 -1.027650e+00 1.000000e+00
         vertex -3.923462e-01 -1.027650e+00 -4.440892e-16
         vertex -5.558212e-02 -1.098595e+00 0.000000e+00
      endloop
   endfacet
   facet normal 1.063274e-01 -9.943312e-01 0.000000e+00
      outer loop
         vertex 2.866227e-01 -1.062002e+00 0.000000e+00
         vertex -5.558212e-02 -1.098595e+00 1.000000e+00
         vertex -5.558212e-02 -1.098595e+00 0.000000e+00
      endloop
   endfacet
   facet normal 2.361489e-16 -2.208369e-15 -1.000000e+00
      outer loop
         vertex -6.128389e-02 -8.981107e-01 -4.440892e-16
         vertex 2.866227e-01 -1.062002e+00 0.000000e+00
         vertex -5.558212e-02 -1.098595e+00 0.000000e+00
      endloop
   endfacet
   facet normal -2.130147e-15 -2.275667e-15 -1.000000e+00
      outer loop
         vertex -3.359627e-01 -8.361433e-01 0.000000e+00
         vertex -6.128389e-02 -8.981107e-01 -4.440892e-16
         vertex -5.558212e-02 -1.098595e+00 0.000000e+00
      endloop
   endfacet
   facet normal 1.701669e-15 1.817917e-15 -1.000000e+00
      outer loop
         vertex -3.923462e-01 -1.027650e+00 -4.440892e-16
         vertex -3.359627e-01 -8.361433e-01 0.000000e+00
         vertex -5.558212e-02 -1.098595e+00 0.000000e+00
      endloop
   endfacet
   facet normal 1.063274e-01 -9.943312e-01 0.000000e+00
      outer loop
         vertex 2.866227e-01 -1.062002e+00 0.000000e+00
         vertex 2.866227e-01 -1.062002e+00 1.000000e+00
         vertex -5.558212e-02 -1.098595e+00 1.000000e+00
      endloop
   endfacet
   facet normal 0.000000e+00 0.000000e+00 1.000000e+00
      outer loop
         vertex -6.128389e-02 -8.981107e-01 1.000000e+00
         vertex -3.923462e-01 -1.027650e+00 1.000000e+00
         vertex -5.558212e-02 -1.098595e+00 1.000000e+00
      endloop
   endfacet
   facet normal 0.000000e+00 0.000000e+00 1.000000e+00
      outer loop
         vertex 2.191002e-01 -8.721649e-01 1.000000e+00
         vertex -6.128389e-02 -8.981107e-01 1.000000e+00
         vertex -5.558212e-02 -1.098595e+00 1.000000e+00
      endloop
   endfacet
   facet normal 0.000000e+00 0.000000e+00 1.000000e+00
      outer loop
         vertex 2.866227e-01 -1.062002e+00 1.000000e+00
         vertex 2.191002e-01 -8.721649e-01 1.000000e+00
         vertex -5.558212e-02 -1.098595e+00 1.000000e+00
      endloop
   endfacet
   facet normal 4.083887e-01 -9.128081e-01 0.000000e+00
      outer loop
         vertex 6.007710e-01 -9.214522e-01 -4.440892e-16
         vertex 2.866227e-01 -1.062002e+00 1.000000e+00
         vertex 2.866227e-01 -1.062002e+00 0.000000e+00
      endloop
   endfacet
   facet normal -1.219557e-15 -4.337809e-16 -1.000000e+00
      outer loop
         vertex 2.191002e-01 -8.721649e-01 0.000000e+00
         vertex 6.007710e-01 -9.214522e-01 -4.440892e-16
         vertex 2.866227e-01 -1.062002e+00 0.000000e+00
      endloop
   endfacet
   facet normal 1.533390e-15 5.454074e-16 -1.000000e+00
      outer loop
         vertex -6.128389e-02 -8.981107e-01 -4.440892e-16
         vertex 2.191002e-01 -8.721649e-01 0.000000e+00
         vertex 2.866227e-01 -1.062002e+00 0.000000e+00
      endloop
   endfacet
   facet normal 4.083887e-01 -9.128081e-01 0.000000e+00
      outer loop
         vertex 6.007710e-01 -9.214522e-01 -4.440892e-16
         vertex 6.007710e-01 -9.214522e-01 1.000000e+00
         vertex 2.866227e-01 -1.062002e+00 1.000000e+00
      endloop
   endfacet
   facet normal 0.000000e+00 0.000000e+00 1.000000e+00
      outer loop
         vertex 4.777437e-01 -7.608455e-01 1.000000e+00
         vertex 2.191002e-01 -8.721649e-01 1.000000e+00
         vertex 2.866227e-01 -1.062002e+00 1.000000e+00
      endloop
   endfacet
   facet normal 0.000000e+00 0.000000e+00 1.000000e+00
      outer loop
         vertex 6.007710e-01 -9.214522e-01 1.000000e+00
         vertex 4.777437e-01 -7.608455e-01 1.000000e+00
         vertex 2.866227e-01 -1.062002e+00 1.000000e+00
      endloop
   endfacet
   facet normal -4.984325e-01 -8.669285e-01 -0.000000e+00
      outer loop
         vertex -3.923462e-01 -1.027650e+00 1.000000e+00
         vertex -6.907047e-01 -8.561115e-01 1.000000e+00
         vertex -3.923462e-01 -1.027650e+00 -4.440892e-16
      endloop
   endfacet
   facet normal -4.984325e-01 -8.669285e-01 -0.000000e+00
      outer loop
         vertex -6.907047e-01 -8.561115e-01 1.000000e+00
         vertex -6.907047e-01 -8.561115e-01 0.000000e+00
         vertex -3.923462e-01 -1.027650e+00 -4.440892e-16
      endloop
   endfacet
   facet normal 1.172514e-15 1.973711e-15 -1.000000e+00
      outer loop
         vertex -5.780489e-01 -6.923283e-01 0.000000e+00
         vertex -3.359627e-01 -8.361433e-01 0.000000e+00
         vertex -3.923462e-01 -1.027650e+00 -4.440892e-16
      endloop
   endfacet
   facet normal -1.066628e-15 7.336640e-16 -1.000000e+00
      outer loop
         vertex -6.907047e-01 -8.561115e-01 0.000000e+00
         vertex -5.780489e-01 -6.923283e-01 0.000000e+00
         vertex -3.923462e-01 -1.027650e+00 -4.440892e-16
      endloop
   endfacet
   facet normal 0.000000e+00 0.000000e+00 1.000000e+00
      outer loop
         vertex -3.359627e-01 -8.361433e-01 1.000000e+00
         vertex -6.907047e-01 -8.561115e-01 1.000000e+00
         vertex -3.923462e-01 -1.027650e+00 1.000000e+00
      endloop
   endfacet
   facet normal 0.000000e+00 0.000000e+00 1.000000e+00
      outer loop
         vertex -6.128389e-02 -8.981107e-01 1.000000e+00
         vertex -3.359627e-01 -8.361433e-01 1.000000e+00
         vertex -3.923462e-01 -1.027650e+00 1.000000e+00
      endloop
   endfacet
   facet normal 6.704740e-01 -7.419330e-01 0.000000e+00
      outer loop
         vertex 8.561115e-01 -6.907047e-01 0.000000e+00
         vertex 6.007710e-01 -9.214522e-01 1.000000e+00
         vertex 6.007710e-01 -9.214522e-01 -4.440892e-16
      endloop
   endfacet
   facet normal -4.488446e-16 2.421250e-15 -1.000000e+00
      outer loop
         vertex 4.777437e-01 -7.608455e-01 0.000000e+00
         vertex 8.561115e-01 -6.907047e-01 0.000000e+00
         vertex 6.007710e-01 -9.214522e-01 -4.440892e-16
      endloop
   endfacet
   facet normal -8.950044e-16 2.079485e-15 -1.000000e+00
      outer loop
         vertex 2.191002e-01 -8.721649e-01 0.000000e+00
         vertex 4.777437e-01 -7.608455e-01 0.000000e+00
         vertex 6.007710e-01 -9.214522e-01 -4.440892e-16
      endloop
   endfacet
   facet normal 6.704740e-01 -7.419330e-01 0.000000e+00
      outer loop
         vertex 8.561115e-01 -6.907047e-01 0.000000e+00
         vertex 8.561115e-01 -6.907047e-01 1.000000e+00
         vertex 6.007710e-01 -9.214522e-01 1.000000e+00
      endloop
   endfacet
   facet normal 0.000000e+00 0.000000e+00 1.000000e+00
      outer loop
         vertex 6.893286e-01 -5.750492e-01 1.000000e+00
         vertex 4.777437e-01 -7.608455e-01 1.000000e+00
         vertex 6.007710e-01 -9.214522e-01 1.000000e+00
      endloop
   endfacet
   facet normal 0.000000e+00 0.000000e+00 1.000000e+00
      outer loop
         vertex 8.561115e-01 -6.907047e-01 1.000000e+00
         vertex 6.893286e-01 -5.750492e-01 1.000000e+00
         vertex 6.007710e-01 -9.214522e-01 1.000000e+00
      endloop
   endfacet
   facet normal -9.214310e-02 9.957458e-01 0.000000e+00
      outer loop
         vertex -6.128389e-02 -8.981107e-01 1.000000e+00
         vertex 2.191002e-01 -8.721649e-01 1.000000e+00
         vertex -6.128389e-02 -8.981107e-01 -4.440892e-16
      endloop
   endfacet
   facet normal -9.214310e-02 9.957458e-01 0.000000e+00
      outer loop
         vertex 2.191002e-01 -8.721649e-01 1.000000e+00
         vertex 2.191002e-01 -8.721649e-01 0.000000e+00
         vertex -6.128389e-02 -8.981107e-01 -4.440892e-16
      endloop
   endfacet
   facet normal 2.200689e-01 9.754843e-01 0.000000e+00
      outer loop
         vertex -3.359627e-01 -8.361433e-01 0.000000e+00
         vertex -6.128389e-02 -8.981107e-01 1.000000e+00
         vertex -6.128389e-02 -8.981107e-01 -4.440892e-16
      endloop
   endfacet
   facet normal 2.200689e-01 9.754843e-01 -0.000000e+00
      outer loop
         vertex -3.359627e-01 -8.361433e-01 0.000000e+00
         vertex -3.359627e-01 -8.361433e-01 1.000000e+00
         vertex -6.128389e-02 -8.981107e-01 1.000000e+00
      endloop
   endfacet
   facet normal -3.953357e-01 9.185367e-01 0.000000e+00
      outer loop
         vertex 2.191002e-01 -8.721649e-01 1.000000e+00
         vertex 4.777437e-01 -7.608455e-01 1.000000e+00
         vertex 2.191002e-01 -8.721649e-01 0.000000e+00
      endloop
   endfacet
   facet normal -3.953357e-01 9.185367e-01 0.000000e+00
      outer loop
         vertex 4.777437e-01 -7.608455e-01 1.000000e+00
         vertex 4.777437e-01 -7.608455e-01 0.000000e+00
         vertex 2.191002e-01 -8.721649e-01 0.000000e+00
      endloop
   endfacet
   facet normal -7.419330e-01 -6.704740e-01 -0.000000e+00
      outer loop
         vertex -6.907047e-01 -8.561115e-01 1.000000e+00
         vertex -9.214522e-01 -6.007710e-01 1.000000e+00
         vertex -6.907047e-01 -8.561115e-01 0.000000e+00
      endloop
   endfacet
   facet normal -7.419330e-01 -6.704740e-01 -0.000000e+00
      outer loop
         vertex -9.214522e-01 -6.007710e-01 1.000000e+00
         vertex -9.214522e-01 -6.007710e-01 0.000000e+00
         vertex -6.907047e-01 -8.561115e-01 0.000000e+00
      endloop
   endfacet
   facet normal 1.340316e-15 -9.219160e-16 -1.000000e+00
      outer loop
         vertex -7.638451e-01 -4.807434e-01 -4.440892e-16
         vertex -5.780489e-01 -6.923283e-01 0.000000e+00
         vertex -6.907047e-01 -8.561115e-01 0.000000e+00
      endloop
   endfacet
   facet normal -1.669043e-15 -1.508289e-15 -1.000000e+00
      outer loop
         vertex -9.214522e-01 -6.007710e-01 0.000000e+00
         vertex -7.638451e-01 -4.807434e-01 -4.440892e-16
         vertex -6.907047e-01 -8.561115e-01 0.000000e+00
      endloop
   endfacet
   facet normal 0.000000e+00 0.000000e+00 1.000000e+00
      outer loop
         vertex -5.780489e-01 -6.923283e-01 1.000000e+00
         vertex -9.214522e-01 -6.007710e-01 1.000000e+00
         vertex -6.907047e-01 -8.561115e-01 1.000000e+00
      endloop
   endfacet
   facet normal 0.000000e+00 0.000000e+00 1.000000e+00
      outer loop
         vertex -3.359627e-01 -8.361433e-01 1.000000e+00
         vertex -5.780489e-01 -6.923283e-01 1.000000e+00
         vertex -6.907047e-01 -8.561115e-01 1.000000e+00
      endloop
   endfacet
   facet normal 5.107393e-01 8.597356e-01 0.000000e+00
      outer loop
         vertex -5.780489e-01 -6.923283e-01 0.000000e+00
         vertex -3.359627e-01 -8.361433e-01 1.000000e+00
         vertex -3.359627e-01 -8.361433e-01 0.000000e+00
      endloop
   endfacet
   facet normal 5.107393e-01 8.597356e-01 -0.000000e+00
      outer loop
         vertex -5.780489e-01 -6.923283e-01 0.000000e+00
         vertex -5.780489e-01 -6.923283e-01 1.000000e+00
         vertex -3.359627e-01 -8.361433e-01 1.000000e+00
      endloop
   endfacet
   facet normal -6.598302e-01 7.514148e-01 0.000000e+00
      outer loop
         vertex 4.777437e-01 -7.608455e-01 1.000000e+00
         vertex 6.893286e-01 -5.750492e-01 1.000000e+00
         vertex 4.777437e-01 -7.608455e-01 0.000000e+00
      endloop
   endfacet
   facet normal -6.598302e-01 7.514148e-01 0.000000e+00
      outer loop
         vertex 6.893286e-01 -5.750492e-01 1.000000e+00
         vertex 6.893286e-01 -5.750492e-01 0.000000e+00
         vertex 4.777437e-01 -7.608455e-01 0.000000e+00
      endloop
   endfacet
   facet normal 0.000000e+00 -0.000000e+00 -1.000000e+00
      outer loop
         vertex 6.893286e-01 -5.750492e-01 0.000000e+00
         vertex 8.561115e-01 -6.907047e-01 0.000000e+00
         vertex 4.777437e-01 -7.608455e-01 0.000000e+00
      endloop
   endfacet
   facet normal 7.514149e-01 6.598301e-01 0.000000e+00
      outer loop
         vertex -7.638451e-01 -4.807434e-01 -4.440892e-16
         vertex -5.780489e-01 -6.923283e-01 1.000000e+00
         vertex -5.780489e-01 -6.923283e-01 0.000000e+00
      endloop
   endfacet
   facet normal 7.514149e-01 6.598301e-01 -0.000000e+00
      outer loop
         vertex -7.638451e-01 -4.807434e-01 -4.440892e-16
         vertex -7.638451e-01 -4.807434e-01 1.000000e+00
         vertex -5.780489e-01 -6.923283e-01 1.000000e+00
      endloop
   endfacet
   facet normal 0.000000e+00 0.000000e+00 1.000000e+00
      outer loop
         vertex -7.638451e-01 -4.807434e-01 1.000000e+00
         vertex -9.214522e-01 -6.007710e-01 1.000000e+00
         vertex -5.780489e-01 -6.923283e-01 1.000000e+00
      endloop
   endfacet
   facet normal 8.669285e-01 -4.984325e-01 0.000000e+00
      outer loop
         vertex 1.027650e+00 -3.923462e-01 0.000000e+00
         vertex 8.561115e-01 -6.907047e-01 1.000000e+00
         vertex 8.561115e-01 -6.907047e-01 0.000000e+00
      endloop
   endfacet
   facet normal 0.000000e+00 0.000000e+00 -1.000000e+00
      outer loop
         vertex 6.893286e-01 -5.750492e-01 0.000000e+00
         vertex 1.027650e+00 -3.923462e-01 0.000000e+00
         vertex 8.561115e-01 -6.907047e-01 0.000000e+00
      endloop
   endfacet
   facet normal 8.669285e-01 -4.984325e-01 0.000000e+00
      outer loop
         vertex 1.027650e+00 -3.923462e-01 0.000000e+00
         vertex 1.027650e+00 -3.923462e-01 1.000000e+00
         vertex 8.561115e-01 -6.907047e-01 1.000000e+00
      endloop
   endfacet
   facet normal 0.000000e+00 0.000000e+00 1.000000e+00
      outer loop
         vertex 8.331436e-01 -3.329630e-01 1.000000e+00
         vertex 6.893286e-01 -5.750492e-01 1.000000e+00
         vertex 8.561115e-01 -6.907047e-01 1.000000e+00
      endloop
   endfacet
   facet normal 0.000000e+00 0.000000e+00 1.000000e+00
      outer loop
         vertex 1.027650e+00 -3.923462e-01 1.000000e+00
         vertex 8.331436e-01 -3.329630e-01 1.000000e+00
         vertex 8.561115e-01 -6.907047e-01 1.000000e+00
      endloop
   endfacet
   facet normal -9.128081e-01 -4.083887e-01 -0.000000e+00
      outer loop
         vertex -9.214522e-01 -6.007710e-01 1.000000e+00
         vertex -1.062002e+00 -2.866227e-01 1.000000e+00
         vertex -9.214522e-01 -6.007710e-01 0.000000e+00
      endloop
   endfacet
   facet normal -9.128081e-01 -4.083887e-01 -0.000000e+00
      outer loop
         vertex -1.062002e+00 -2.866227e-01 1.000000e+00
         vertex -1.062002e+00 -2.866227e-01 0.000000e+00
         vertex -9.214522e-01 -6.007710e-01 0.000000e+00
      endloop
   endfacet
   facet normal -3.106925e-15 3.797811e-16 -1.000000e+00
      outer loop
         vertex -8.751646e-01 -2.220999e-01 0.000000e+00
         vertex -7.638451e-01 -4.807434e-01 -4.440892e-16
         vertex -9.214522e-01 -6.007710e-01 0.000000e+00
      endloop
   endfacet
   facet normal 0.000000e+00 0.000000e+00 -1.000000e+00
      outer loop
         vertex -1.062002e+00 -2.866227e-01 0.000000e+00
         vertex -8.751646e-01 -2.220999e-01 0.000000e+00
         vertex -9.214522e-01 -6.007710e-01 0.000000e+00
      endloop
   endfacet
   facet normal 0.000000e+00 0.000000e+00 1.000000e+00
      outer loop
         vertex -7.638451e-01 -4.807434e-01 1.000000e+00
         vertex -1.062002e+00 -2.866227e-01 1.000000e+00
         vertex -9.214522e-01 -6.007710e-01 1.000000e+00
      endloop
   endfacet
   facet normal -8.597356e-01 5.107394e-01 0.000000e+00
      outer loop
         vertex 6.893286e-01 -5.750492e-01 1.000000e+00
         vertex 8.331436e-01 -3.329630e-01 1.000000e+00
         vertex 6.893286e-01 -5.750492e-01 0.000000e+00
      endloop
   endfacet
   facet normal -8.597356e-01 5.107394e-01 0.000000e+00
      outer loop
         vertex 8.331436e-01 -3.329630e-01 1.000000e+00
         vertex 8.331436e-01 -3.329630e-01 0.000000e+00
         vertex 6.893286e-01 -5.750492e-01 0.000000e+00
      endloop
   endfacet
   facet normal 0.000000e+00 -0.000000e+00 -1.000000e+00
      outer loop
         vertex 8.331436e-01 -3.329630e-01 0.000000e+00
         vertex 1.027650e+00 -3.923462e-01 0.000000e+00
         vertex 6.893286e-01 -5.750492e-01 0.000000e+00
      endloop
   endfacet
   facet normal 9.185366e-01 3.953358e-01 0.000000e+00
      outer loop
         vertex -8.751646e-01 -2.220999e-01 0.000000e+00
         vertex -7.638451e-01 -4.807434e-01 1.000000e+00
         vertex -7.638451e-01 -4.807434e-01 -4.440892e-16
      endloop
   endfacet
   facet normal 9.185366e-01 3.953358e-01 -0.000000e+00
      outer loop
         vertex -8.751646e-01 -2.220999e-01 0.000000e+00
         vertex -8.751646e-01 -2.220999e-01 1.000000e+00
         vertex -7.638451e-01 -4.807434e-01 1.000000e+00
      endloop
   endfacet
   facet normal 0.000000e+00 0.000000e+00 1.000000e+00
      outer loop
         vertex -8.751646e-01 -2.220999e-01 1.000000e+00
         vertex -1.062002e+00 -2.866227e-01 1.000000e+00
         vertex -7.638451e-01 -4.807434e-01 1.000000e+00
      endloop
   endfacet
   facet normal 9.785222e-01 -2.061415e-01 0.000000e+00
      outer loop
         vertex 1.098595e+00 -5.558212e-02 0.000000e+00
         vertex 1.027650e+00 -3.923462e-01 1.000000e+00
         vertex 1.027650e+00 -3.923462e-01 0.000000e+00
      endloop
   endfacet
   facet normal 0.000000e+00 0.000000e+00 -1.000000e+00
      outer loop
         vertex 8.331436e-01 -3.329630e-01 0.000000e+00
         vertex 1.098595e+00 -5.558212e-02 0.000000e+00
         vertex 1.027650e+00 -3.923462e-01 0.000000e+00
      endloop
   endfacet
   facet normal 9.785222e-01 -2.061415e-01 0.000000e+00
      outer loop
         vertex 1.098595e+00 -5.558212e-02 0.000000e+00
         vertex 1.098595e+00 -5.558212e-02 1.000000e+00
         vertex 1.027650e+00 -3.923462e-01 1.000000e+00
      endloop
   endfacet
   facet normal 0.000000e+00 0.000000e+00 1.000000e+00
      outer loop
         vertex 8.951111e-01 -5.828419e-02 1.000000e+00
         vertex 8.331436e-01 -3.329630e-01 1.000000e+00
         vertex 1.027650e+00 -3.923462e-01 1.000000e+00
      endloop
   endfacet
   facet normal 0.000000e+00 0.000000e+00 1.000000e+00
      outer loop
         vertex 1.098595e+00 -5.558212e-02 1.000000e+00
         vertex 8.951111e-01 -5.828419e-02 1.000000e+00
         vertex 1.027650e+00 -3.923462e-01 1.000000e+00
      endloop
   endfacet
   facet normal -9.754843e-01 2.200690e-01 0.000000e+00
      outer loop
         vertex 8.331436e-01 -3.329630e-01 1.000000e+00
         vertex 8.951111e-01 -5.828419e-02 1.000000e+00
         vertex 8.331436e-01 -3.329630e-01 0.000000e+00
      endloop
   endfacet
   facet normal -9.754843e-01 2.200690e-01 0.000000e+00
      outer loop
         vertex 8.951111e-01 -5.828419e-02 1.000000e+00
         vertex 8.951111e-01 -5.828419e-02 0.000000e+00
         vertex 8.331436e-01 -3.329630e-01 0.000000e+00
      endloop
   endfacet
   facet normal 0.000000e+00 -0.000000e+00 -1.000000e+00
      outer loop
         vertex 8.951111e-01 -5.828419e-02 0.000000e+00
         vertex 1.098595e+00 -5.558212e-02 0.000000e+00
         vertex 8.331436e-01 -3.329630e-01 0.000000e+00
      endloop
   endfacet
   facet normal -9.943312e-01 -1.063274e-01 -0.000000e+00
      outer loop
         vertex -1.062002e+00 -2.866227e-01 1.000000e+00
         vertex -1.098595e+00 5.558212e-02 1.000000e+00
         vertex -1.062002e+00 -2.866227e-01 0.000000e+00
      endloop
   endfacet
   facet normal -9.943312e-01 -1.063274e-01 -0.000000e+00
      outer loop
         vertex -1.098595e+00 5.558212e-02 1.000000e+00
         vertex -1.098595e+00 5.558212e-02 -4.440892e-16
         vertex -1.062002e+00 -2.866227e-01 0.000000e+00
      endloop
   endfacet
   facet normal 5.300364e-16 -1.534812e-15 -1.000000e+00
      outer loop
         vertex -9.011105e-01 5.828419e-02 -4.440892e-16
         vertex -8.751646e-01 -2.220999e-01 0.000000e+00
         vertex -1.062002e+00 -2.866227e-01 0.000000e+00
      endloop
   endfacet
   facet normal 1.773017e-17 -1.295833e-15 -1.000000e+00
      outer loop
         vertex -1.098595e+00 5.558212e-02 -4.440892e-16
         vertex -9.011105e-01 5.828419e-02 -4.440892e-16
         vertex -1.062002e+00 -2.866227e-01 0.000000e+00
      endloop
   endfacet
   facet normal 0.000000e+00 0.000000e+00 1.000000e+00
      outer loop
         vertex -8.751646e-01 -2.220999e-01 1.000000e+00
         vertex -1.098595e+00 5.558212e-02 1.000000e+00
         vertex -1.062002e+00 -2.866227e-01 1.000000e+00
      endloop
   endfacet
   facet normal 9.957458e-01 9.214310e-02 0.000000e+00
      outer loop
         vertex -9.011105e-01 5.828419e-02 -4.440892e-16
         vertex -8.751646e-01 -2.220999e-01 1.000000e+00
         vertex -8.751646e-01 -2.220999e-01 0.000000e+00
      endloop
   endfacet
   facet normal 9.957458e-01 9.214310e-02 -0.000000e+00
      outer loop
         vertex -9.011105e-01 5.828419e-02 -4.440892e-16
         vertex -9.011105e-01 5.828419e-02 1.000000e+00
         vertex -8.751646e-01 -2.220999e-01 1.000000e+00
      endloop
   endfacet
   facet normal 0.000000e+00 0.000000e+00 1.000000e+00
      outer loop
         vertex -9.011105e-01 5.828419e-02 1.000000e+00
         vertex -1.098595e+00 5.558212e-02 1.000000e+00
         vertex -8.751646e-01 -2.220999e-01 1.000000e+00
      endloop
   endfacet
   facet normal -9.957458e-01 -9.214331e-02 -0.000000e+00
      outer loop
         vertex 8.951111e-01 -5.828419e-02 1.000000e+00
         vertex 8.691652e-01 2.220999e-01 1.000000e+00
         vertex 8.951111e-01 -5.828419e-02 0.000000e+00
      endloop
   endfacet
   facet normal -9.957458e-01 -9.214331e-02 -0.000000e+00
      outer loop
         vertex 8.691652e-01 2.220999e-01 1.000000e+00
         vertex 8.691652e-01 2.220999e-01 0.000000e+00
         vertex 8.951111e-01 -5.828419e-02 0.000000e+00
      endloop
   endfacet
   facet normal 0.000000e+00 0.000000e+00 -1.000000e+00
      outer loop
         vertex 8.691652e-01 2.220999e-01 0.000000e+00
         vertex 1.062002e+00 2.866227e-01 0.000000e+00
         vertex 8.951111e-01 -5.828419e-02 0.000000e+00
      endloop
   endfacet
   facet normal 0.000000e+00 -0.000000e+00 -1.000000e+00
      outer loop
         vertex 1.062002e+00 2.866227e-01 0.000000e+00
         vertex 1.098595e+00 -5.558212e-02 0.000000e+00
         vertex 8.951111e-01 -5.828419e-02 0.000000e+00
      endloop
   endfacet
   facet normal 0.000000e+00 0.000000e+00 1.000000e+00
      outer loop
         vertex 1.098595e+00 -5.558212e-02 1.000000e+00
         vertex 8.691652e-01 2.220999e-01 1.000000e+00
         vertex 8.951111e-01 -5.828419e-02 1.000000e+00
      endloop
   endfacet
   facet normal 9.943312e-01 1.063274e-01 0.000000e+00
      outer loop
         vertex 1.062002e+00 2.866227e-01 0.000000e+00
         vertex 1.098595e+00 -5.558212e-02 1.000000e+00
         vertex 1.098595e+00 -5.558212e-02 0.000000e+00
      endloop
   endfacet
   facet normal 9.943312e-01 1.063274e-01 -0.000000e+00
      outer loop
         vertex 1.062002e+00 2.866227e-01 0.000000e+00
         vertex 1.062002e+00 2.866227e-01 1.000000e+00
         vertex 1.098595e+00 -5.558212e-02 1.000000e+00
      endloop
   endfacet
   facet normal 0.000000e+00 0.000000e+00 1.000000e+00
      outer loop
         vertex 1.062002e+00 2.866227e-01 1.000000e+00
         vertex 8.691652e-01 2.220999e-01 1.000000e+00
         vertex 1.098595e+00 -5.558212e-02 1.000000e+00
      endloop
   endfacet
   facet normal -9.785222e-01 2.061415e-01 0.000000e+00
      outer loop
         vertex -1.098595e+00 5.558212e-02 1.000000e+00
         vertex -1.027650e+00 3.923462e-01 1.000000e+00
         vertex -1.098595e+00 5.558212e-02 -4.440892e-16
      endloop
   endfacet
   facet normal -9.785222e-01 2.061415e-01 0.000000e+00
      outer loop
         vertex -1.027650e+00 3.923462e-01 1.000000e+00
         vertex -1.027650e+00 3.923462e-01 -4.440892e-16
         vertex -1.098595e+00 5.558212e-02 -4.440892e-16
      endloop
   endfacet
   facet normal -2.218970e-17 1.621764e-15 -1.000000e+00
      outer loop
         vertex -8.391430e-01 3.329630e-01 0.000000e+00
         vertex -9.011105e-01 5.828419e-02 -4.440892e-16
         vertex -1.098595e+00 5.558212e-02 -4.440892e-16
      endloop
   endfacet
   facet normal 2.209212e-15 -4.654061e-16 -1.000000e+00
      outer loop
         vertex -1.027650e+00 3.923462e-01 -4.440892e-16
         vertex -8.391430e-01 3.329630e-01 0.000000e+00
         vertex -1.098595e+00 5.558212e-02 -4.440892e-16
      endloop
   endfacet
   facet normal 0.000000e+00 0.000000e+00 1.000000e+00
      outer loop
         vertex -9.011105e-01 5.828419e-02 1.000000e+00
         vertex -1.027650e+00 3.923462e-01 1.000000e+00
         vertex -1.098595e+00 5.558212e-02 1.000000e+00
      endloop
   endfacet
   facet normal 9.754843e-01 -2.200690e-01 0.000000e+00
      outer loop
         vertex -8.391430e-01 3.329630e-01 0.000000e+00
         vertex -9.011105e-01 5.828419e-02 1.000000e+00
         vertex -9.011105e-01 5.828419e-02 -4.440892e-16
      endloop
   endfacet
   facet normal 9.754843e-01 -2.200690e-01 0.000000e+00
      outer loop
         vertex -8.391430e-01 3.329630e-01 0.000000e+00
         vertex -8.391430e-01 3.329630e-01 1.000000e+00
         vertex -9.011105e-01 5.828419e-02 1.000000e+00
      endloop
   endfacet
   facet normal 0.000000e+00 0.000000e+00 1.000000e+00
      outer loop
         vertex -8.391430e-01 3.329630e-01 1.000000e+00
         vertex -1.027650e+00 3.923462e-01 1.000000e+00
         vertex -9.011105e-01 5.828419e-02 1.000000e+00
      endloop
   endfacet
   facet normal -9.185367e-01 -3.953357e-01 -0.000000e+00
      outer loop
         vertex 8.691652e-01 2.220999e-01 1.000000e+00
         vertex 7.578458e-01 4.807434e-01 1.000000e+00
         vertex 8.691652e-01 2.220999e-01 0.000000e+00
      endloop
   endfacet
   facet normal -9.185367e-01 -3.953357e-01 -0.000000e+00
      outer loop
         vertex 7.578458e-01 4.807434e-01 1.000000e+00
         vertex 7.578458e-01 4.807434e-01 0.000000e+00
         vertex 8.691652e-01 2.220999e-01 0.000000e+00
      endloop
   endfacet
   facet normal -2.062979e-15 -8.879004e-16 -1.000000e+00
      outer loop
         vertex 7.578458e-01 4.807434e-01 0.000000e+00
         vertex 9.214522e-01 6.007710e-01 -4.440892e-16
         vertex 8.691652e-01 2.220999e-01 0.000000e+00
      endloop
   endfacet
   facet normal 4.114108e-16 -1.229565e-15 -1.000000e+00
      outer loop
         vertex 9.214522e-01 6.007710e-01 -4.440892e-16
         vertex 1.062002e+00 2.866227e-01 0.000000e+00
         vertex 8.691652e-01 2.220999e-01 0.000000e+00
      endloop
   endfacet
   facet normal 0.000000e+00 0.000000e+00 1.000000e+00
      outer loop
         vertex 1.062002e+00 2.866227e-01 1.000000e+00
         vertex 7.578458e-01 4.807434e-01 1.000000e+00
         vertex 8.691652e-01 2.220999e-01 1.000000e+00
      endloop
   endfacet
   facet normal 9.128081e-01 4.083887e-01 0.000000e+00
      outer loop
         vertex 9.214522e-01 6.007710e-01 -4.440892e-16
         vertex 1.062002e+00 2.866227e-01 1.000000e+00
         vertex 1.062002e+00 2.866227e-01 0.000000e+00
      endloop
   endfacet
   facet normal 9.128081e-01 4.083887e-01 -0.000000e+00
      outer loop
         vertex 9.214522e-01 6.007710e-01 -4.440892e-16
         vertex 9.214522e-01 6.007710e-01 1.000000e+00
         vertex 1.062002e+00 2.866227e-01 1.000000e+00
      endloop
   endfacet
   facet normal 0.000000e+00 0.000000e+00 1.000000e+00
      outer loop
         vertex 9.214522e-01 6.007710e-01 1.000000e+00
         vertex 7.578458e-01 4.807434e-01 1.000000e+00
         vertex 1.062002e+00 2.866227e-01 1.000000e+00
      endloop
   endfacet
   facet normal 8.597357e-01 -5.107392e-01 0.000000e+00
      outer loop
         vertex -6.953280e-01 5.750492e-01 0.000000e+00
         vertex -8.391430e-01 3.329630e-01 1.000000e+00
         vertex -8.391430e-01 3.329630e-01 0.000000e+00
      endloop
   endfacet
   facet normal 1.984450e-15 -1.178893e-15 -1.000000e+00
      outer loop
         vertex -1.027650e+00 3.923462e-01 -4.440892e-16
         vertex -6.953280e-01 5.750492e-01 0.000000e+00
         vertex -8.391430e-01 3.329630e-01 0.000000e+00
      endloop
   endfacet
   facet normal 8.597357e-01 -5.107392e-01 0.000000e+00
      outer loop
         vertex -6.953280e-01 5.750492e-01 0.000000e+00
         vertex -6.953280e-01 5.750492e-01 1.000000e+00
         vertex -8.391430e-01 3.329630e-01 1.000000e+00
      endloop
   endfacet
   facet normal 0.000000e+00 0.000000e+00 1.000000e+00
      outer loop
         vertex -6.953280e-01 5.750492e-01 1.000000e+00
         vertex -8.561115e-01 6.907047e-01 1.000000e+00
         vertex -8.391430e-01 3.329630e-01 1.000000e+00
      endloop
   endfacet
   facet normal 0.000000e+00 0.000000e+00 1.000000e+00
      outer loop
         vertex -8.561115e-01 6.907047e-01 1.000000e+00
         vertex -1.027650e+00 3.923462e-01 1.000000e+00
         vertex -8.391430e-01 3.329630e-01 1.000000e+00
      endloop
   endfacet
   facet normal -8.669285e-01 4.984325e-01 0.000000e+00
      outer loop
         vertex -1.027650e+00 3.923462e-01 1.000000e+00
         vertex -8.561115e-01 6.907047e-01 1.000000e+00
         vertex -1.027650e+00 3.923462e-01 -4.440892e-16
      endloop
   endfacet
   facet normal -8.669285e-01 4.984325e-01 0.000000e+00
      outer loop
         vertex -8.561115e-01 6.907047e-01 1.000000e+00
         vertex -8.561115e-01 6.907047e-01 -4.440892e-16
         vertex -1.027650e+00 3.923462e-01 -4.440892e-16
      endloop
   endfacet
   facet normal 1.953942e-15 -1.123401e-15 -1.000000e+00
      outer loop
         vertex -8.561115e-01 6.907047e-01 -4.440892e-16
         vertex -6.953280e-01 5.750492e-01 0.000000e+00
         vertex -1.027650e+00 3.923462e-01 -4.440892e-16
      endloop
   endfacet
   facet normal -7.514148e-01 -6.598302e-01 -0.000000e+00
      outer loop
         vertex 7.578458e-01 4.807434e-01 1.000000e+00
         vertex 5.720494e-01 6.923283e-01 1.000000e+00
         vertex 7.578458e-01 4.807434e-01 0.000000e+00
      endloop
   endfacet
   facet normal -7.514148e-01 -6.598302e-01 -0.000000e+00
      outer loop
         vertex 5.720494e-01 6.923283e-01 1.000000e+00
         vertex 5.720494e-01 6.923283e-01 0.000000e+00
         vertex 7.578458e-01 4.807434e-01 0.000000e+00
      endloop
   endfacet
   facet normal 0.000000e+00 0.000000e+00 -1.000000e+00
      outer loop
         vertex 5.720494e-01 6.923283e-01 0.000000e+00
         vertex 6.907047e-01 8.561115e-01 0.000000e+00
         vertex 7.578458e-01 4.807434e-01 0.000000e+00
      endloop
   endfacet
   facet normal -2.399503e-15 -4.291925e-16 -1.000000e+00
      outer loop
         vertex 6.907047e-01 8.561115e-01 0.000000e+00
         vertex 9.214522e-01 6.007710e-01 -4.440892e-16
         vertex 7.578458e-01 4.807434e-01 0.000000e+00
      endloop
   endfacet
   facet normal 0.000000e+00 0.000000e+00 1.000000e+00
      outer loop
         vertex 9.214522e-01 6.007710e-01 1.000000e+00
         vertex 5.720494e-01 6.923283e-01 1.000000e+00
         vertex 7.578458e-01 4.807434e-01 1.000000e+00
      endloop
   endfacet
   facet normal 6.598301e-01 -7.514148e-01 0.000000e+00
      outer loop
         vertex -4.837431e-01 7.608455e-01 -4.440892e-16
         vertex -6.953280e-01 5.750492e-01 1.000000e+00
         vertex -6.953280e-01 5.750492e-01 0.000000e+00
      endloop
   endfacet
   facet normal 5.731780e-16 -3.042929e-15 -1.000000e+00
      outer loop
         vertex -8.561115e-01 6.907047e-01 -4.440892e-16
         vertex -4.837431e-01 7.608455e-01 -4.440892e-16
         vertex -6.953280e-01 5.750492e-01 0.000000e+00
      endloop
   endfacet
   facet normal 6.598301e-01 -7.514148e-01 0.000000e+00
      outer loop
         vertex -4.837431e-01 7.608455e-01 -4.440892e-16
         vertex -4.837431e-01 7.608455e-01 1.000000e+00
         vertex -6.953280e-01 5.750492e-01 1.000000e+00
      endloop
   endfacet
   facet normal 0.000000e+00 0.000000e+00 1.000000e+00
      outer loop
         vertex -4.837431e-01 7.608455e-01 1.000000e+00
         vertex -6.007710e-01 9.214522e-01 1.000000e+00
         vertex -6.953280e-01 5.750492e-01 1.000000e+00
      endloop
   endfacet
   facet normal 0.000000e+00 0.000000e+00 1.000000e+00
      outer loop
         vertex -6.007710e-01 9.214522e-01 1.000000e+00
         vertex -8.561115e-01 6.907047e-01 1.000000e+00
         vertex -6.953280e-01 5.750492e-01 1.000000e+00
      endloop
   endfacet
   facet normal 7.419330e-01 6.704740e-01 0.000000e+00
      outer loop
         vertex 6.907047e-01 8.561115e-01 0.000000e+00
         vertex 9.214522e-01 6.007710e-01 1.000000e+00
         vertex 9.214522e-01 6.007710e-01 -4.440892e-16
      endloop
   endfacet
   facet normal 7.419330e-01 6.704740e-01 -0.000000e+00
      outer loop
         vertex 6.907047e-01 8.561115e-01 0.000000e+00
         vertex 6.907047e-01 8.561115e-01 1.000000e+00
         vertex 9.214522e-01 6.007710e-01 1.000000e+00
      endloop
   endfacet
   facet normal 0.000000e+00 0.000000e+00 1.000000e+00
      outer loop
         vertex 6.907047e-01 8.561115e-01 1.000000e+00
         vertex 5.720494e-01 6.923283e-01 1.000000e+00
         vertex 9.214522e-01 6.007710e-01 1.000000e+00
      endloop
   endfacet
   facet normal -6.704740e-01 7.419330e-01 0.000000e+00
      outer loop
         vertex -8.561115e-01 6.907047e-01 1.000000e+00
         vertex -6.007710e-01 9.214522e-01 1.000000e+00
         vertex -8.561115e-01 6.907047e-01 -4.440892e-16
      endloop
   endfacet
   facet normal -6.704740e-01 7.419330e-01 0.000000e+00
      outer loop
         vertex -6.007710e-01 9.214522e-01 1.000000e+00
         vertex -6.007710e-01 9.214522e-01 -4.440892e-16
         vertex -8.561115e-01 6.907047e-01 -4.440892e-16
      endloop
   endfacet
   facet normal 0.000000e+00 -0.000000e+00 -1.000000e+00
      outer loop
         vertex -6.007710e-01 9.214522e-01 -4.440892e-16
         vertex -4.837431e-01 7.608455e-01 -4.440892e-16
         vertex -8.561115e-01 6.907047e-01 -4.440892e-16
      endloop
   endfacet
   facet normal -5.107394e-01 -8.597356e-01 -0.000000e+00
      outer loop
         vertex 5.720494e-01 6.923283e-01 1.000000e+00
         vertex 3.299633e-01 8.361433e-01 1.000000e+00
         vertex 5.720494e-01 6.923283e-01 0.000000e+00
      endloop
   endfacet
   facet normal -5.107394e-01 -8.597356e-01 -0.000000e+00
      outer loop
         vertex 3.299633e-01 8.361433e-01 1.000000e+00
         vertex 3.299633e-01 8.361433e-01 0.000000e+00
         vertex 5.720494e-01 6.923283e-01 0.000000e+00
      endloop
   endfacet
   facet normal 0.000000e+00 0.000000e+00 -1.000000e+00
      outer loop
         vertex 3.299633e-01 8.361433e-01 0.000000e+00
         vertex 3.923462e-01 1.027650e+00 0.000000e+00
         vertex 5.720494e-01 6.923283e-01 0.000000e+00
      endloop
   endfacet
   facet normal 0.000000e+00 0.000000e+00 -1.000000e+00
      outer loop
         vertex 3.923462e-01 1.027650e+00 0.000000e+00
         vertex 6.907047e-01 8.561115e-01 0.000000e+00
         vertex 5.720494e-01 6.923283e-01 0.000000e+00
      endloop
   endfacet
   facet normal 0.000000e+00 0.000000e+00 1.000000e+00
      outer loop
         vertex 6.907047e-01 8.561115e-01 1.000000e+00
         vertex 3.299633e-01 8.361433e-01 1.000000e+00
         vertex 5.720494e-01 6.923283e-01 1.000000e+00
      endloop
   endfacet
   facet normal 3.953357e-01 -9.185367e-01 0.000000e+00
      outer loop
         vertex -2.250997e-01 8.721649e-01 -4.440892e-16
         vertex -4.837431e-01 7.608455e-01 1.000000e+00
         vertex -4.837431e-01 7.608455e-01 -4.440892e-16
      endloop
   endfacet
   facet normal 0.000000e+00 0.000000e+00 -1.000000e+00
      outer loop
         vertex -6.007710e-01 9.214522e-01 -4.440892e-16
         vertex -2.250997e-01 8.721649e-01 -4.440892e-16
         vertex -4.837431e-01 7.608455e-01 -4.440892e-16
      endloop
   endfacet
   facet normal 3.953357e-01 -9.185367e-01 0.000000e+00
      outer loop
         vertex -2.250997e-01 8.721649e-01 -4.440892e-16
         vertex -2.250997e-01 8.721649e-01 1.000000e+00
         vertex -4.837431e-01 7.608455e-01 1.000000e+00
      endloop
   endfacet
   facet normal 0.000000e+00 0.000000e+00 1.000000e+00
      outer loop
         vertex -2.250997e-01 8.721649e-01 1.000000e+00
         vertex -2.866227e-01 1.062002e+00 1.000000e+00
         vertex -4.837431e-01 7.608455e-01 1.000000e+00
      endloop
   endfacet
   facet normal 0.000000e+00 0.000000e+00 1.000000e+00
      outer loop
         vertex -2.866227e-01 1.062002e+00 1.000000e+00
         vertex -6.007710e-01 9.214522e-01 1.000000e+00
         vertex -4.837431e-01 7.608455e-01 1.000000e+00
      endloop
   endfacet
   facet normal -2.200689e-01 -9.754843e-01 -0.000000e+00
      outer loop
         vertex 3.299633e-01 8.361433e-01 1.000000e+00
         vertex 5.528447e-02 8.981107e-01 1.000000e+00
         vertex 3.299633e-01 8.361433e-01 0.000000e+00
      endloop
   endfacet
   facet normal -2.200689e-01 -9.754843e-01 -0.000000e+00
      outer loop
         vertex 5.528447e-02 8.981107e-01 1.000000e+00
         vertex 5.528447e-02 8.981107e-01 -4.440892e-16
         vertex 3.299633e-01 8.361433e-01 0.000000e+00
      endloop
   endfacet
   facet normal 2.115772e-15 2.211944e-15 -1.000000e+00
      outer loop
         vertex 5.528447e-02 8.981107e-01 -4.440892e-16
         vertex 5.558212e-02 1.098595e+00 0.000000e+00
         vertex 3.299633e-01 8.361433e-01 0.000000e+00
      endloop
   endfacet
   facet normal 0.000000e+00 0.000000e+00 -1.000000e+00
      outer loop
         vertex 5.558212e-02 1.098595e+00 0.000000e+00
         vertex 3.923462e-01 1.027650e+00 0.000000e+00
         vertex 3.299633e-01 8.361433e-01 0.000000e+00
      endloop
   endfacet
   facet normal 0.000000e+00 0.000000e+00 1.000000e+00
      outer loop
         vertex 6.907047e-01 8.561115e-01 1.000000e+00
         vertex 3.923462e-01 1.027650e+00 1.000000e+00
         vertex 3.299633e-01 8.361433e-01 1.000000e+00
      endloop
   endfacet
   facet normal 0.000000e+00 0.000000e+00 1.000000e+00
      outer loop
         vertex 3.923462e-01 1.027650e+00 1.000000e+00
         vertex 5.528447e-02 8.981107e-01 1.000000e+00
         vertex 3.299633e-01 8.361433e-01 1.000000e+00
      endloop
   endfacet
   facet normal 4.984325e-01 8.669285e-01 0.000000e+00
      outer loop
         vertex 3.923462e-01 1.027650e+00 0.000000e+00
         vertex 6.907047e-01 8.561115e-01 1.000000e+00
         vertex 6.907047e-01 8.561115e-01 0.000000e+00
      endloop
   endfacet
   facet normal 4.984325e-01 8.669285e-01 -0.000000e+00
      outer loop
         vertex 3.923462e-01 1.027650e+00 0.000000e+00
         vertex 3.923462e-01 1.027650e+00 1.000000e+00
         vertex 6.907047e-01 8.561115e-01 1.000000e+00
      endloop
   endfacet
   facet normal 9.214310e-02 -9.957458e-01 0.000000e+00
      outer loop
         vertex 5.528447e-02 8.981107e-01 -4.440892e-16
         vertex -2.250997e-01 8.721649e-01 1.000000e+00
         vertex -2.250997e-01 8.721649e-01 -4.440892e-16
      endloop
   endfacet
   facet normal 0.000000e+00 0.000000e+00 -1.000000e+00
      outer loop
         vertex -6.007710e-01 9.214522e-01 -4.440892e-16
         vertex -2.866227e-01 1.062002e+00 -4.440892e-16
         vertex -2.250997e-01 8.721649e-01 -4.440892e-16
      endloop
   endfacet
   facet normal 0.000000e+00 0.000000e+00 -1.000000e+00
      outer loop
         vertex -2.866227e-01 1.062002e+00 -4.440892e-16
         vertex 5.528447e-02 8.981107e-01 -4.440892e-16
         vertex -2.250997e-01 8.721649e-01 -4.440892e-16
      endloop
   endfacet
   facet normal 9.214310e-02 -9.957458e-01 0.000000e+00
      outer loop
         vertex 5.528447e-02 8.981107e-01 -4.440892e-16
         vertex 5.528447e-02 8.981107e-01 1.000000e+00
         vertex -2.250997e-01 8.721649e-01 1.000000e+00
      endloop
   endfacet
   facet normal 0.000000e+00 -0.000000e+00 1.000000e+00
      outer loop
         vertex 5.528447e-02 8.981107e-01 1.000000e+00
         vertex 5.558212e-02 1.098595e+00 1.000000e+00
         vertex -2.250997e-01 8.721649e-01 1.000000e+00
      endloop
   endfacet
   facet normal 0.000000e+00 0.000000e+00 1.000000e+00
      outer loop
         vertex 5.558212e-02 1.098595e+00 1.000000e+00
         vertex -2.866227e-01 1.062002e+00 1.000000e+00
         vertex -2.250997e-01 8.721649e-01 1.000000e+00
      endloop
   endfacet
   facet normal 1.061031e-15 2.213510e-15 -1.000000e+00
      outer loop
         vertex -2.866227e-01 1.062002e+00 -4.440892e-16
         vertex 5.558212e-02 1.098595e+00 0.000000e+00
         vertex 5.528447e-02 8.981107e-01 -4.440892e-16
      endloop
   endfacet
   facet normal 0.000000e+00 0.000000e+00 1.000000e+00
      outer loop
         vertex 3.923462e-01 1.027650e+00 1.000000e+00
         vertex 5.558212e-02 1.098595e+00 1.000000e+00
         vertex 5.528447e-02 8.981107e-01 1.000000e+00
      endloop
   endfacet
   facet normal -4.083887e-01 9.128081e-01 0.000000e+00
      outer loop
         vertex -6.007710e-01 9.214522e-01 1.000000e+00
         vertex -2.866227e-01 1.062002e+00 1.000000e+00
         vertex -6.007710e-01 9.214522e-01 -4.440892e-16
      endloop
   endfacet
   facet normal -4.083887e-01 9.128081e-01 0.000000e+00
      outer loop
         vertex -2.866227e-01 1.062002e+00 1.000000e+00
         vertex -2.866227e-01 1.062002e+00 -4.440892e-16
         vertex -6.007710e-01 9.214522e-01 -4.440892e-16
      endloop
   endfacet
   facet normal 2.061415e-01 9.785222e-01 0.000000e+00
      outer loop
         vertex 5.558212e-02 1.098595e+00 0.000000e+00
         vertex 3.923462e-01 1.027650e+00 1.000000e+00
         vertex 3.923462e-01 1.027650e+00 0.000000e+00
      endloop
   endfacet
   facet normal 2.061415e-01 9.785222e-01 -0.000000e+00
      outer loop
         vertex 5.558212e-02 1.098595e+00 0.000000e+00
         vertex 5.558212e-02 1.098595e+00 1.000000e+00
         vertex 3.923462e-01 1.027650e+00 1.000000e+00
      endloop
   endfacet
   facet normal -1.063274e-01 9.943312e-01 0.000000e+00
      outer loop
         vertex -2.866227e-01 1.062002e+00 1.000000e+00
         vertex 5.558212e-02 1.098595e+00 1.000000e+00
         vertex -2.866227e-01 1.062002e+00 -4.440892e-16
      endloop
   endfacet
   facet normal -1.063274e-01 9.943312e-01 0.000000e+00
      outer loop
         vertex 5.558212e-02 1.098595e+00 1.000000e+00
         vertex 5.558212e-02 1.098595e+00 0.000000e+00
         vertex -2.866227e-01 1.062002e+00 -4.440892e-16
      endloop
   endfacet
endsolid