solid STL generated by MeshLab
  facet normal -1.000000e+00  0.000000e+00  0.000000e+00
    outer loop
      vertex   0.000000e+00  0.000000e+00  8.000000e-01
      vertex   0.000000e+00  1.025000e-01  8.000000e-01
      vertex   0.000000e+00  0.000000e+00  0.000000e+00
    endloop
  endfacet
  facet normal -1.000000e+00  0.000000e+00 -0.000000e+00
    outer loop
      vertex   0.000000e+00  1.025000e-01  8.000000e-01
      vertex   0.000000e+00  1.025000e-01  0.000000e+00
      vertex   0.000000e+00  0.000000e+00  0.000000e+00
    endloop
  endfacet
  facet normal  0.000000e+00 -1.000000e+00  0.000000e+00
    outer loop
      vertex   9.900001e-02  0.000000e+00  0.000000e+00
      vertex   0.000000e+00  0.000000e+00  8.000000e-01
      vertex   0.000000e+00  0.000000e+00  0.000000e+00
    endloop
  endfacet
  facet normal  0.000000e+00  0.000000e+00 -1.000000e+00
    outer loop
      vertex   0.000000e+00  1.025000e-01  0.000000e+00
      vertex   9.900001e-02  0.000000e+00  0.000000e+00
      vertex   0.000000e+00  0.000000e+00  0.000000e+00
    endloop
  endfacet
  facet normal -0.000000e+00 -1.000000e+00 -0.000000e+00
    outer loop
      vertex   9.900001e-02  0.000000e+00  8.000000e-01
      vertex   0.000000e+00  0.000000e+00  8.000000e-01
      vertex   9.900001e-02  0.000000e+00  0.000000e+00
    endloop
  endfacet
  facet normal  1.000000e+00  0.000000e+00  0.000000e+00
    outer loop
      vertex   9.900001e-02  1.025000e-01  0.000000e+00
      vertex   9.900001e-02  0.000000e+00  8.000000e-01
      vertex   9.900001e-02  0.000000e+00  0.000000e+00
    endloop
  endfacet
  facet normal  0.000000e+00  0.000000e+00 -1.000000e+00
    outer loop
      vertex   0.000000e+00  1.025000e-01  0.000000e+00
      vertex   9.900001e-02  1.025000e-01  0.000000e+00
      vertex   9.900001e-02  0.000000e+00  0.000000e+00
    endloop
  endfacet
  facet normal  0.000000e+00 -0.000000e+00  1.000000e+00
    outer loop
      vertex   9.900001e-02  0.000000e+00  8.000000e-01
      vertex   9.900001e-02  1.025000e-01  8.000000e-01
      vertex   0.000000e+00  0.000000e+00  8.000000e-01
    endloop
  endfacet
  facet normal  0.000000e+00  0.000000e+00  1.000000e+00
    outer loop
      vertex   9.900001e-02  1.025000e-01  8.000000e-01
      vertex   0.000000e+00  1.025000e-01  8.000000e-01
      vertex   0.000000e+00  0.000000e+00  8.000000e-01
    endloop
  endfacet
  facet normal  1.000000e+00  0.000000e+00 -0.000000e+00
    outer loop
      vertex   9.900001e-02  1.025000e-01  0.000000e+00
      vertex   9.900001e-02  1.025000e-01  8.000000e-01
      vertex   9.900001e-02  0.000000e+00  8.000000e-01
    endloop
  endfacet
  facet normal -0.000000e+00  1.000000e+00  0.000000e+00
    outer loop
      vertex   0.000000e+00  1.025000e-01  8.000000e-01
      vertex   9.900001e-02  1.025000e-01  8.000000e-01
      vertex   0.000000e+00  1.025000e-01  0.000000e+00
    endloop
  endfacet
  facet normal  0.000000e+00  1.000000e+00  0.000000e+00
    outer loop
      vertex   9.900001e-02  1.025000e-01  8.000000e-01
      vertex   9.900001e-02  1.025000e-01  0.000000e+00
      vertex   0.000000e+00  1.025000e-01  0.000000e+00
    endloop
  endfacet
endsolid vcg
